<?xml version="1.0" encoding="utf-8"?>
<!-- Generator: Adobe Illustrator 17.1.0, SVG Export Plug-In . SVG Version: 6.00 Build 0)  -->
<!DOCTYPE svg PUBLIC "-//W3C//DTD SVG 1.1//EN" "http://www.w3.org/Graphics/SVG/1.1/DTD/svg11.dtd">
<svg version="1.1" id="Layer_1" xmlns="http://www.w3.org/2000/svg" xmlns:xlink="http://www.w3.org/1999/xlink" x="0px" y="0px"
	 viewBox="0 554 1000 376" enable-background="new 0 554 1000 376" xml:space="preserve">
<g id="Layer_1_1_" display="none">
	<rect x="-172" y="498.4" display="inline" fill="#FF0000" width="1798.7" height="600.8"/>
</g>
<g id="Logo_w_x2F_green_-_negative_symbol">
	<g id="QCDocs_w_x2F_green">
		<g>
			<path fill="none" d="M419.1,716.6c-5.3-3.8-11.3-5.6-17.3-5.6c-2.3,0-4.1,0.4-6.4,0.8c-4.1,0.8-7.9,2.6-11.3,4.9
				c-3.4,2.3-6.4,5.3-8.6,9c-3.4,5.3-5.3,11.3-5.3,18c0,9,3,16.9,9,22.9c6,6,13.5,9.4,22.9,9.4c1.1,0,2.3,0,3.4-0.4
				c2.3,0,4.5-0.8,6.8-1.9l-18.4-19.9h25.9l0.8,1.1l6.8,7.5c0.4-0.8,1.1-1.5,1.9-2.3c2.6-4.9,4.1-10.1,4.1-15.8v-1.9
				c0-6.4-1.9-12-4.9-16.9C425.1,721.8,422.5,718.8,419.1,716.6z"/>
			<path fill="none" d="M618.1,718.5c-2.3-1.9-4.5-3-6.8-3.8s-5.3-1.1-7.9-1.5c-2.6-0.4-4.9-0.4-8.3-0.4c-3.4,0-4.5,0-8.3,0v59.7
				h7.9c3.4,0,7.1,0.8,9.8,0.4c2.3,0,5.3,0,7.1-0.4c3.4-0.8,5.6-2.3,9.4-4.1l0,0c3.8-3,4.9-6.8,6.4-11.3c1.5-4.5,1.5-9,1.5-13.5
				c0-4.5-1.1-9.4-2.6-13.5C624.9,726,621.9,721.8,618.1,718.5z"/>
			<path fill="none" d="M703.3,744c-1.9-0.8-4.1-1.1-6-1.1c-2.3,0-4.1,0.4-6,1.1s-3.4,2.3-5.3,3.8c-1.5,1.9-3,3.8-3.4,5.6
				c-0.8,2.3-1.1,4.5-1.1,6.8c0,2.6,0.4,4.9,1.1,6.8c0.8,2.3,1.9,4.1,3.4,5.6c1.5,1.9,3.4,3,5.3,3.8s3.8,1.1,6,1.1
				c2.3,0,4.5-0.4,6-1.1c1.9-0.8,3.4-1.9,5.3-3.8c1.5-1.5,2.6-3.4,3.4-5.6c0.8-1.9,1.1-4.1,1.1-6.8c0-4.9-1.5-9-4.9-12.4
				C707.1,746.2,705.2,744.7,703.3,744z"/>
			<path fill="#FFFFFF" d="M450.2,761.3L450.2,761.3c1.5,0,2.3-5.3,3-8.6s1.1-6.4,1.1-9.4c0-5.3-0.8-10.1-2.3-15
				c-2.6-8.3-7.1-15.4-13.1-21.4c-2.3-2.3-5.3-4.5-7.9-6.4c-8.6-5.6-18.8-8.6-29.3-8.6c-10.9,0-20.7,3-29.3,8.6
				c-3,1.9-5.6,4.1-7.9,6.4c-7.5,7.5-12.4,16.1-14.3,26.3c-0.8,3.8-1.1,7.5-1.1,10.9c0,10.1,3,19.5,9,28.2c1.9,3,4.1,5.6,6.8,7.9
				c2.3,2.3,4.9,4.5,7.9,6.4c7.5,4.9,15.4,7.5,24.4,8.3c1.5,0,3.4,0.4,4.9,0.4c7.1,0,13.9-1.1,20.3-3.8c1.5-0.4,3-1.9,4.9-3
				l10.5,10.5h25.5l-21-22.9C445.4,771.4,448.4,768.8,450.2,761.3z M432.6,744c0,5.6-1.1,11.3-4.1,15.8c-0.4,0.8-1.1,1.9-1.5,2.6
				l-6.8-7.5l-0.8-1.1h-25.9l18.4,19.9c-2.3,0.8-4.5,1.5-6.8,1.5c-1.1,0-2.3,0.4-3.4,0.4c-9,0-16.5-3-22.9-9.4s-9-13.9-9-22.9
				c0-6.8,1.9-12.8,5.3-18c2.3-3.4,5.3-6.4,8.6-9c3.4-2.3,7.1-4.1,11.3-4.9c2.3-0.4,4.1-0.8,6.4-0.8c6,0,12,1.9,17.3,5.6
				c3.4,2.3,6.4,5.3,8.6,9c3.4,4.9,4.9,10.5,4.9,16.9v1.9H432.6z"/>
			<path fill="#FFFFFF" d="M519.7,711.3c9.8,0,19.2,3.4,27,10.5l4.1,3.4l1.1-22.5l-1.1-0.8c-7.5-4.9-15-8.3-23.3-9.4
				c-3-0.4-6-0.8-9-0.8c-6.8,0-13.5,1.1-19.9,3.8c-9.8,3.8-17.6,10.1-23.3,18.8c-5.6,8.6-8.6,18.4-8.6,29.3s3,20.7,8.6,29.3
				c7.9,12,19.2,19.2,33.4,21.4c3.8,0.8,7.5,0.8,10.9,0.8c5.6,0,10.9-0.8,16.1-2.3c4.9-1.5,10.5-3.8,15-6.8l1.9-0.8v-24.4
				c-3.8,1.5-4.5,3-6.4,4.5s-4.1,3-6.4,4.1c-6.8,4.1-14.3,6.4-22.2,6.4c-8.6,0-16.1-3-21.8-9c-5.6-6-8.6-13.9-8.6-23.3
				c0-9.8,3-17.6,8.6-23.7C501.7,714,510.3,711.3,519.7,711.3z"/>
			<path fill="#8CC63F" d="M640.3,712.1c-3.8-5.6-9-10.1-15.8-13.1c-3-1.5-6.4-2.6-9.4-3c-3-0.4-6.4-1.1-10.5-1.5
				c-5.3-0.4-10.9-0.8-17.3-0.8H564v97.6h27.4c5.3,0,10.1,0.8,14.6,0.4c1.1,0,3.4,0.4,6,0c2.6-0.4,4.1-0.4,4.5-0.8
				c3-0.8,5.6-1.5,7.9-2.6c5.6-3,10.5-6.8,14.6-12c2.3-2.6,3.8-5.6,5.6-9.4c2.3-5.3,3.8-11.3,4.1-17.6c0-1.9,0.4-4.1,0.4-6
				c0-4.1-0.4-8.3-1.1-12C646.6,724.1,644,718.1,640.3,712.1z M626.7,757.1c-1.5,4.5-2.6,8.3-6.4,11.3l0,0c-3.8,1.9-6,3.4-9.4,4.1
				c-1.9,0.4-4.5,0-6.8,0.4c-2.6,0.4-6.4-0.4-10.1-0.4h-7.9v-59.7c3.8,0,4.9,0,8.3,0s6,0,8.6,0.4c3,0.4,5.3,0.8,7.9,1.5
				s4.5,1.9,6.8,3.8c3.8,3,6,6.8,7.5,11.3c1.5,4.5,2.6,9,2.6,13.5C627.9,747.7,628.2,752.6,626.7,757.1z"/>
			<path fill="#8CC63F" d="M730.4,746.6c-0.8-2.3-1.9-4.1-3.4-6c-1.5-1.9-3-3.8-4.5-5.3c-1.5-1.5-3.4-3-5.6-4.5s-4.1-2.6-6.4-3.4
				c-4.5-1.9-9-2.6-13.9-2.6c-2.3,0-4.5,0.4-7.1,0.8c-2.6,0.4-4.9,1.1-6.8,1.9s-4.1,1.9-6,3c-2.3,1.5-3.8,3-5.6,4.5
				c-1.9,1.9-3.4,3.4-4.5,5.3c-1.5,1.9-2.3,4.1-3.4,6c-0.8,1.9-1.5,4.1-1.9,6.8c-0.4,2.3-0.8,4.9-0.8,7.1s0.4,4.5,0.8,7.1
				c0.4,2.3,1.1,4.5,2.3,6.8c0.8,2.3,1.9,4.1,3.4,6c1.1,1.9,2.6,3.8,4.5,5.3c1.5,1.5,3.4,2.3,5.6,3.8c1.9,1.1,3.8,2.3,6.4,2.3l0,0
				c2.6,3.8,4.9,2.3,6.8,2.6c2.6,0.4,4.9,1.1,7.1,1.1c2.3,0,4.5-0.8,7.1-1.1c2.3-0.4,4.5,1.1,6.8-2.6l0,0c2.3,0,4.1-1.1,6.4-2.6
				c1.9-1.1,3.8-2.3,5.6-4.1c1.5-1.5,3-3,4.5-5.3c1.1-1.5,2.3-3.8,3.4-6c0.8-2.3,1.5-4.5,1.9-6.8s0.8-4.5,0.8-7.1s-0.4-4.9-0.8-6.8
				C732.3,750.8,731.5,748.5,730.4,746.6z M712,766.9c-0.8,2.3-1.9,4.1-3.4,5.6c-1.5,1.9-3.4,3-5.3,3.8c-1.9,0.8-3.8,1.1-6,1.1
				c-2.3,0-4.5-0.4-6-1.1c-1.9-0.8-3.4-1.9-5.3-3.8c-1.5-1.5-2.6-3.4-3.4-5.6c-0.8-1.9-1.1-4.1-1.1-6.8c0-2.6,0.4-4.9,1.1-6.8
				s1.9-3.8,3.4-5.6c1.5-1.5,3.4-3,5.3-3.8s4.1-1.1,6-1.1c2.3,0,4.1,0.4,6,1.1c1.9,0.8,3.8,2.3,5.3,3.8c3,3.4,4.9,7.5,4.9,12.4
				C713.1,762.8,712.7,765,712,766.9z"/>
			<path fill="#8CC63F" d="M795,727.1c-1.5-0.4-3-1.1-4.1-1.5c-1.1-0.4-2.6-0.4-4.5-0.8c-1.5,0-3-0.4-4.9-0.4
				c-5.6,0-10.1,0.8-14.6,2.6c-4.5,1.5-8.3,4.1-11.6,7.5c-3.4,3.4-6,7.1-7.5,11.3c-1.5,4.5-2.6,9-2.6,14.3c0,5.3,0.8,9.8,2.6,13.9
				c1.5,4.5,4.1,8.3,7.5,11.3c3.4,3.4,7.1,6,11.3,7.5c4.1,1.5,9,2.6,13.9,2.6c1.5,0,3.4,0,5.3-0.4c1.9-0.4,3.4-0.4,4.9-0.8
				c1.5-0.4,3.4-0.8,4.5-1.5c1.1-0.4,3-1.1,4.5-1.9l1.5-0.8v-24.4c0,1.5-2.6,3-3.8,4.1c-1.1,1.1-2.6,2.3-4.1,3.8
				c-0.4,0.4-1.1,0.8-1.9,1.1c-0.8,0.4-1.1,0.8-1.5,0.8c-1.1,0.8-2.3,1.1-3.8,1.1c-1.5,0-2.6,0.4-4.1,0.4c-2.6,0-5.3-0.4-7.1-1.1
				s-3.8-1.9-5.3-3.4c-1.5-1.5-2.6-3.4-3.4-5.3c-0.8-2.3-1.1-4.9-1.1-7.5c0-2.6,0.4-5.6,1.1-7.9c0.8-1.9,1.9-2.3,3.4-6l0,0
				c1.5,0,3-2.3,4.9-3s4.1-1.1,6.8-1.1c1.5,0,3,0.4,4.1,0.4c1.5,0.4,2.6,0.8,3.8,1.1c1.1,0.4,2.3,1.1,3.4,1.9
				c1.5,1.1,3.4,2.3,4.5,3.4c1.1,1.1,3.8,2.3,3.8,3.8v-23.7l-1.5-0.8C797.6,728.2,796.5,727.5,795,727.1z"/>
			<path fill="#8CC63F" d="M862.9,761.3c-1.5-1.5-3.4-3-5.6-4.5s-4.5-2.6-7.5-3.8c-1.1-0.4-1.9-0.8-2.3-0.8c-0.8,0-1.1-0.4-1.5-0.4
				s-1.1-0.4-1.5-0.4c-6-2.3-9-4.1-9-6c0-0.8,0-1.1,0.4-1.5c0-0.4,0.4-0.8,1.1-1.1c0.4-0.4,1.1-0.8,1.9-0.8c0.8-0.4,1.5-0.4,2.6-0.4
				c1.1,0,1.9,0.4,2.6,0.4c0.8,0.4,1.5,1.1,2.3,1.1l0,0c0.8,0,1.1,0.8,1.5,1.1c0.4,0.4,0.8,1.1,1.1,1.5l1.1,3l3-1.9l9.8-6.8l1.9-1.5
				l-1.1-1.9c-1.1-1.9-2.3-3.8-3.4-5.3c-1.5-1.5-3-3.8-4.9-3.8l0,0c-1.9,0-3.8,0-6-3.8l0,0c-2.3,0-4.5,0-7.1,0
				c-3.4,0-6.8,0.8-10.1,1.9c-3.4,1.1-6,2.6-8.3,4.5c-2.6,1.9-4.1,4.1-5.6,6.8c-1.1,2.6-1.9,5.6-1.9,8.6c0,2.3,0.4,4.5,1.1,6.4
				c0.8,1.9,1.9,3.8,3.4,5.6c1.5,1.5,3.4,3,6,4.5c2.3,1.5,5.3,3,8.6,4.1c0.4,0,1.1,0.4,2.3,0.8c0.8,0.4,1.5,0.8,3,1.1
				c2.6,1.1,4.9,2.3,6.4,3.4c0.8,0.8,1.5,1.9,1.5,2.6s0,1.5-0.4,2.3c-0.4,0.8-0.8,1.1-1.1,1.5c-0.8,0.4-1.1,0.8-2.3,1.1
				c-0.8,0.4-1.9,0.4-3.4,0.4c-1.5,0-3,0-4.1-0.4c-1.1-0.4-2.3-0.8-3-1.5c-0.8-0.4-1.5-1.1-2.3-2.3c-0.8-0.8-1.1-1.9-1.5-3l-0.8-3.4
				l-3,1.5l-11.6,6.4l-2.3,1.1l1.1,2.3c1.1,2.3,2.6,4.5,4.5,6.8c1.9,1.9,3.8,3.4,6,4.9c2.3,1.1,4.5,2.3,7.5,2.6
				c2.6,0.8,5.6,0.8,8.6,0.8c4.1,0,7.9-0.4,11.3-1.5c3.4-1.1,6.4-2.6,8.6-4.1c2.6-2.3,4.5-4.5,5.6-7.1c1.1-3,1.9-6,1.9-9.4
				c0-2.3-0.4-4.5-1.1-6.8C865.6,764.6,864.4,762.8,862.9,761.3z"/>
			<polygon fill="#FFFFFF" points="864.4,701.2 871.9,701.2 871.9,716.2 875.7,716.2 875.7,701.2 879.5,701.2 879.5,697.4 
				864.4,697.4 			"/>
			<path fill="#FFFFFF" d="M897.1,697.4l-4.5,13.1c-0.4,1.5-0.8,2.3-1.1,3c-0.4-0.8-0.4-1.5-0.8-3l-4.5-13.1h-3v18.8h3.8v-15.8
				l3.4,15.8h2.3l5.6-15.4v15.4h3.8v-18.8H897.1z"/>
			<path fill="#FFFFFF" d="M314.3,740.6c0-62-50.3-112.3-112.3-112.3S89.7,678.7,89.7,740.6S140.1,852.9,202,852.9c1.5,0,3,0,4.5,0
				l148.3,0.4l-56-56.3C309,780,314.3,760.9,314.3,740.6z M248.6,791.3h-90.1v-82.6h-4.9l33.8-33.8h61.2V791.3z"/>
			<polygon fill="#4D4D4D" points="187.5,708.7 153.5,708.7 153.5,791.3 248.6,791.3 248.6,674.9 187.5,674.9 			"/>
			<polygon fill="#65A83B" points="187.5,674.9 153.6,708.7 157.3,708.7 187.5,708.7 			"/>
		</g>
	</g>
</g>
</svg>
