<?xml version="1.0" encoding="utf-8"?>
<!-- Generator: Adobe Illustrator 17.1.0, SVG Export Plug-In . SVG Version: 6.00 Build 0)  -->
<!DOCTYPE svg PUBLIC "-//W3C//DTD SVG 1.1//EN" "http://www.w3.org/Graphics/SVG/1.1/DTD/svg11.dtd">
<svg version="1.1" xmlns="http://www.w3.org/2000/svg" xmlns:xlink="http://www.w3.org/1999/xlink" x="0px" y="0px"
	 viewBox="0 0 266.3 100" enable-background="new 0 0 266.3 100" xml:space="preserve">
<g id="Layer_1" display="none">
	<rect x="-45.8" y="-17" display="inline" fill="#FF0000" width="479" height="160"/>
</g>
<g id="Logo_w_x2F_green_-_negative_symbol">
	<g id="QCDocs_w_x2F_green">
		<g>
			<path fill="none" d="M111.6,41.1c-1.4-1-3-1.5-4.6-1.5c-0.6,0-1.1,0.1-1.7,0.2c-1.1,0.2-2.1,0.7-3,1.3c-0.9,0.6-1.7,1.4-2.3,2.4
				c-0.9,1.4-1.4,3-1.4,4.8c0,2.4,0.8,4.5,2.4,6.1s3.6,2.5,6.1,2.5c0.3,0,0.6,0,0.9-0.1c0.6,0,1.2-0.2,1.8-0.5l-4.9-5.3h6.9l0.2,0.3
				l1.8,2c0.1-0.2,0.3-0.4,0.5-0.6c0.7-1.3,1.1-2.7,1.1-4.2V48c0-1.7-0.5-3.2-1.3-4.5C113.2,42.5,112.5,41.7,111.6,41.1z"/>
			<path fill="none" d="M164.6,41.6c-0.6-0.5-1.2-0.8-1.8-1s-1.4-0.3-2.1-0.4c-0.7-0.1-1.3-0.1-2.2-0.1s-1.2,0-2.2,0V56h2.1
				c0.9,0,1.9,0.2,2.6,0.1c0.6,0,1.4,0,1.9-0.1c0.9-0.2,1.5-0.6,2.5-1.1v0c1-0.8,1.3-1.8,1.7-3s0.4-2.4,0.4-3.6s-0.3-2.5-0.7-3.6
				S165.6,42.5,164.6,41.6z"/>
			<path fill="none" d="M187.3,48.4c-0.5-0.2-1.1-0.3-1.6-0.3c-0.6,0-1.1,0.1-1.6,0.3c-0.5,0.2-0.9,0.6-1.4,1
				c-0.4,0.5-0.8,1-0.9,1.5c-0.2,0.6-0.3,1.2-0.3,1.8c0,0.7,0.1,1.3,0.3,1.8c0.2,0.6,0.5,1.1,0.9,1.5c0.4,0.5,0.9,0.8,1.4,1
				c0.5,0.2,1,0.3,1.6,0.3c0.6,0,1.2-0.1,1.6-0.3c0.5-0.2,0.9-0.5,1.4-1c0.4-0.4,0.7-0.9,0.9-1.5c0.2-0.5,0.3-1.1,0.3-1.8
				c0-1.3-0.4-2.4-1.3-3.3C188.3,49,187.8,48.6,187.3,48.4z"/>
			<path fill="#FFFFFF" d="M119.9,53L119.9,53c0.4,0,0.6-1.4,0.8-2.3c0.2-0.9,0.3-1.7,0.3-2.5c0-1.4-0.2-2.7-0.6-4
				c-0.7-2.2-1.9-4.1-3.5-5.7c-0.6-0.6-1.4-1.2-2.1-1.7c-2.3-1.5-5-2.3-7.8-2.3c-2.9,0-5.5,0.8-7.8,2.3c-0.8,0.5-1.5,1.1-2.1,1.7
				c-2,2-3.3,4.3-3.8,7c-0.2,1-0.3,2-0.3,2.9c0,2.7,0.8,5.2,2.4,7.5c0.5,0.8,1.1,1.5,1.8,2.1c0.6,0.6,1.3,1.2,2.1,1.7
				c2,1.3,4.1,2,6.5,2.2c0.4,0,0.9,0.1,1.3,0.1c1.9,0,3.7-0.3,5.4-1c0.4-0.1,0.8-0.5,1.3-0.8l2.8,2.8h6.8l-5.6-6.1
				C118.6,55.7,119.4,55,119.9,53z M115.2,48.4c0,1.5-0.3,3-1.1,4.2c-0.1,0.2-0.3,0.5-0.4,0.7l-1.8-2l-0.2-0.3h-6.9l4.9,5.3
				c-0.6,0.2-1.2,0.4-1.8,0.4c-0.3,0-0.6,0.1-0.9,0.1c-2.4,0-4.4-0.8-6.1-2.5s-2.4-3.7-2.4-6.1c0-1.8,0.5-3.4,1.4-4.8
				c0.6-0.9,1.4-1.7,2.3-2.4c0.9-0.6,1.9-1.1,3-1.3c0.6-0.1,1.1-0.2,1.7-0.2c1.6,0,3.2,0.5,4.6,1.5c0.9,0.6,1.7,1.4,2.3,2.4
				c0.9,1.3,1.3,2.8,1.3,4.5V48.4z"/>
			<path fill="#FFFFFF" d="M138.4,39.7c2.6,0,5.1,0.9,7.2,2.8l1.1,0.9l0.3-6l-0.3-0.2c-2-1.3-4-2.2-6.2-2.5
				c-0.8-0.1-1.6-0.2-2.4-0.2c-1.8,0-3.6,0.3-5.3,1c-2.6,1-4.7,2.7-6.2,5c-1.5,2.3-2.3,4.9-2.3,7.8c0,2.9,0.8,5.5,2.3,7.8
				c2.1,3.2,5.1,5.1,8.9,5.7c1,0.2,2,0.2,2.9,0.2c1.5,0,2.9-0.2,4.3-0.6c1.3-0.4,2.8-1,4-1.8l0.5-0.2v-6.5c-1,0.4-1.2,0.8-1.7,1.2
				s-1.1,0.8-1.7,1.1c-1.8,1.1-3.8,1.7-5.9,1.7c-2.3,0-4.3-0.8-5.8-2.4c-1.5-1.6-2.3-3.7-2.3-6.2c0-2.6,0.8-4.7,2.3-6.3
				S135.9,39.7,138.4,39.7z"/>
			<path fill="#8CC63F" d="M170.5,39.9c-1-1.5-2.4-2.7-4.2-3.5c-0.8-0.4-1.7-0.7-2.5-0.8s-1.7-0.3-2.8-0.4c-1.4-0.1-2.9-0.2-4.6-0.2
				h-6.2v26h7.3c1.4,0,2.7,0.2,3.9,0.1c0.3,0,0.9,0.1,1.6,0s1.1-0.1,1.2-0.2c0.8-0.2,1.5-0.4,2.1-0.7c1.5-0.8,2.8-1.8,3.9-3.2
				c0.6-0.7,1-1.5,1.5-2.5c0.6-1.4,1-3,1.1-4.7c0-0.5,0.1-1.1,0.1-1.6c0-1.1-0.1-2.2-0.3-3.2C172.2,43.1,171.5,41.5,170.5,39.9z
				 M166.9,51.9c-0.4,1.2-0.7,2.2-1.7,3v0c-1,0.5-1.6,0.9-2.5,1.1c-0.5,0.1-1.2,0-1.8,0.1c-0.7,0.1-1.7-0.1-2.7-0.1h-2.1V40.1
				c1,0,1.3,0,2.2,0s1.6,0,2.3,0.1c0.8,0.1,1.4,0.2,2.1,0.4s1.2,0.5,1.8,1c1,0.8,1.6,1.8,2,3s0.7,2.4,0.7,3.6S167.3,50.7,166.9,51.9
				z"/>
			<path fill="#8CC63F" d="M194.5,49.1c-0.2-0.6-0.5-1.1-0.9-1.6s-0.8-1-1.2-1.4c-0.4-0.4-0.9-0.8-1.5-1.2c-0.6-0.4-1.1-0.7-1.7-0.9
				c-1.2-0.5-2.4-0.7-3.7-0.7c-0.6,0-1.2,0.1-1.9,0.2c-0.7,0.1-1.3,0.3-1.8,0.5c-0.5,0.2-1.1,0.5-1.6,0.8c-0.6,0.4-1,0.8-1.5,1.2
				c-0.5,0.5-0.9,0.9-1.2,1.4c-0.4,0.5-0.6,1.1-0.9,1.6c-0.2,0.5-0.4,1.1-0.5,1.8c-0.1,0.6-0.2,1.3-0.2,1.9c0,0.6,0.1,1.2,0.2,1.9
				c0.1,0.6,0.3,1.2,0.6,1.8c0.2,0.6,0.5,1.1,0.9,1.6c0.3,0.5,0.7,1,1.2,1.4c0.4,0.4,0.9,0.6,1.5,1c0.5,0.3,1,0.6,1.7,0.6h0
				c0.7,1,1.3,0.6,1.8,0.7c0.7,0.1,1.3,0.3,1.9,0.3s1.2-0.2,1.9-0.3c0.6-0.1,1.2,0.3,1.8-0.7h0c0.6,0,1.1-0.3,1.7-0.7
				c0.5-0.3,1-0.6,1.5-1.1c0.4-0.4,0.8-0.8,1.2-1.4c0.3-0.4,0.6-1,0.9-1.6c0.2-0.6,0.4-1.2,0.5-1.8c0.1-0.6,0.2-1.2,0.2-1.9
				s-0.1-1.3-0.2-1.8C195,50.2,194.8,49.6,194.5,49.1z M189.6,54.5c-0.2,0.6-0.5,1.1-0.9,1.5c-0.4,0.5-0.9,0.8-1.4,1
				c-0.5,0.2-1,0.3-1.6,0.3c-0.6,0-1.2-0.1-1.6-0.3c-0.5-0.2-0.9-0.5-1.4-1c-0.4-0.4-0.7-0.9-0.9-1.5c-0.2-0.5-0.3-1.1-0.3-1.8
				c0-0.7,0.1-1.3,0.3-1.8c0.2-0.5,0.5-1,0.9-1.5c0.4-0.4,0.9-0.8,1.4-1c0.5-0.2,1.1-0.3,1.6-0.3c0.6,0,1.1,0.1,1.6,0.3
				c0.5,0.2,1,0.6,1.4,1c0.8,0.9,1.3,2,1.3,3.3C189.9,53.4,189.8,54,189.6,54.5z"/>
			<path fill="#8CC63F" d="M211.7,43.9c-0.4-0.1-0.8-0.3-1.1-0.4c-0.3-0.1-0.7-0.1-1.2-0.2c-0.4,0-0.8-0.1-1.3-0.1
				c-1.5,0-2.7,0.2-3.9,0.7c-1.2,0.4-2.2,1.1-3.1,2c-0.9,0.9-1.6,1.9-2,3c-0.4,1.2-0.7,2.4-0.7,3.8c0,1.4,0.2,2.6,0.7,3.7
				c0.4,1.2,1.1,2.2,2,3c0.9,0.9,1.9,1.6,3,2c1.1,0.4,2.4,0.7,3.7,0.7c0.4,0,0.9,0,1.4-0.1c0.5-0.1,0.9-0.1,1.3-0.2
				c0.4-0.1,0.9-0.2,1.2-0.4c0.3-0.1,0.8-0.3,1.2-0.5l0.4-0.2v-6.5c0,0.4-0.7,0.8-1,1.1s-0.7,0.6-1.1,1c-0.1,0.1-0.3,0.2-0.5,0.3
				s-0.3,0.2-0.4,0.2c-0.3,0.2-0.6,0.3-1,0.3s-0.7,0.1-1.1,0.1c-0.7,0-1.4-0.1-1.9-0.3c-0.5-0.2-1-0.5-1.4-0.9
				c-0.4-0.4-0.7-0.9-0.9-1.4c-0.2-0.6-0.3-1.3-0.3-2c0-0.7,0.1-1.5,0.3-2.1c0.2-0.5,0.5-0.6,0.9-1.6h0c0.4,0,0.8-0.6,1.3-0.8
				c0.5-0.2,1.1-0.3,1.8-0.3c0.4,0,0.8,0.1,1.1,0.1c0.4,0.1,0.7,0.2,1,0.3s0.6,0.3,0.9,0.5c0.4,0.3,0.9,0.6,1.2,0.9s1,0.6,1,1v-6.3
				l-0.4-0.2C212.4,44.2,212.1,44,211.7,43.9z"/>
			<path fill="#8CC63F" d="M229.8,53c-0.4-0.4-0.9-0.8-1.5-1.2c-0.6-0.4-1.2-0.7-2-1c-0.3-0.1-0.5-0.2-0.6-0.2
				c-0.2,0-0.3-0.1-0.4-0.1s-0.3-0.1-0.4-0.1c-1.6-0.6-2.4-1.1-2.4-1.6c0-0.2,0-0.3,0.1-0.4c0-0.1,0.1-0.2,0.3-0.3
				c0.1-0.1,0.3-0.2,0.5-0.2c0.2-0.1,0.4-0.1,0.7-0.1c0.3,0,0.5,0.1,0.7,0.1c0.2,0.1,0.4,0.3,0.6,0.3h0c0.2,0,0.3,0.2,0.4,0.3
				c0.1,0.1,0.2,0.3,0.3,0.4l0.3,0.8l0.8-0.5l2.6-1.8l0.5-0.4l-0.3-0.5c-0.3-0.5-0.6-1-0.9-1.4c-0.4-0.4-0.8-1-1.3-1h0
				c-0.5,0-1,0-1.6-1h0c-0.6,0-1.2,0-1.9,0c-0.9,0-1.8,0.2-2.7,0.5c-0.9,0.3-1.6,0.7-2.2,1.2c-0.7,0.5-1.1,1.1-1.5,1.8
				c-0.3,0.7-0.5,1.5-0.5,2.3c0,0.6,0.1,1.2,0.3,1.7c0.2,0.5,0.5,1,0.9,1.5c0.4,0.4,0.9,0.8,1.6,1.2c0.6,0.4,1.4,0.8,2.3,1.1
				c0.1,0,0.3,0.1,0.6,0.2c0.2,0.1,0.4,0.2,0.8,0.3c0.7,0.3,1.3,0.6,1.7,0.9c0.2,0.2,0.4,0.5,0.4,0.7c0,0.2,0,0.4-0.1,0.6
				c-0.1,0.2-0.2,0.3-0.3,0.4c-0.2,0.1-0.3,0.2-0.6,0.3c-0.2,0.1-0.5,0.1-0.9,0.1c-0.4,0-0.8,0-1.1-0.1c-0.3-0.1-0.6-0.2-0.8-0.4
				c-0.2-0.1-0.4-0.3-0.6-0.6c-0.2-0.2-0.3-0.5-0.4-0.8l-0.2-0.9l-0.8,0.4l-3.1,1.7l-0.6,0.3l0.3,0.6c0.3,0.6,0.7,1.2,1.2,1.8
				c0.5,0.5,1,0.9,1.6,1.3c0.6,0.3,1.2,0.6,2,0.7c0.7,0.2,1.5,0.2,2.3,0.2c1.1,0,2.1-0.1,3-0.4c0.9-0.3,1.7-0.7,2.3-1.1
				c0.7-0.6,1.2-1.2,1.5-1.9c0.3-0.8,0.5-1.6,0.5-2.5c0-0.6-0.1-1.2-0.3-1.8C230.5,53.9,230.2,53.4,229.8,53z"/>
			<polygon fill="#FFFFFF" points="230.2,37 232.2,37 232.2,41 233.2,41 233.2,37 234.2,37 234.2,36 230.2,36 			"/>
			<path fill="#FFFFFF" d="M238.9,36l-1.2,3.5c-0.1,0.4-0.2,0.6-0.3,0.8c-0.1-0.2-0.1-0.4-0.2-0.8L236,36h-0.8v5h1v-4.2l0.9,4.2h0.6
				l1.5-4.1V41h1v-5H238.9z"/>
			<path fill="#FFFFFF" d="M83.7,47.5c0-16.5-13.4-29.9-29.9-29.9c-16.5,0-29.9,13.4-29.9,29.9c0,16.5,13.4,29.9,29.9,29.9
				c0.4,0,0.8,0,1.2,0l39.5,0.1l-14.9-15C82.3,58,83.7,52.9,83.7,47.5z M66.2,61h-24V39h-1.3l9-9h16.3V61z"/>
			<polygon fill="#4D4D4D" points="50.2,39 42.2,39 42.2,61 66.2,61 66.2,30 50.2,30 			"/>
			<polygon fill="#65A83B" points="50.2,30 40.9,39 41.9,39 50.2,39 			"/>
		</g>
	</g>
</g>
</svg>
